<svg xmlns="http://www.w3.org/2000/svg" viewBox="0 0 720 200" width="720" height="200" role="img" aria-label="Internships posted per week, last 16 weeks"><title>Internships posted per week</title><g font-family="-apple-system,Segoe UI,Roboto,sans-serif" font-size="11"><line x1="38" y1="174.0" x2="706" y2="174.0" stroke="#30363d" stroke-width="1"/><text x="32" y="178.0" text-anchor="end" fill="#8b949e">0</text><line x1="38" y1="98.0" x2="706" y2="98.0" stroke="#30363d" stroke-width="1"/><text x="32" y="102.0" text-anchor="end" fill="#8b949e">115</text><line x1="38" y1="22.0" x2="706" y2="22.0" stroke="#30363d" stroke-width="1"/><text x="32" y="26.0" text-anchor="end" fill="#8b949e">230</text><path d="M38.0,174 L38.0,157.5 L82.5,165.4 L127.1,166.1 L171.6,164.1 L216.1,146.9 L260.7,161.4 L305.2,150.2 L349.7,145.6 L394.3,150.2 L438.8,137.7 L483.3,133.7 L527.9,111.2 L572.4,66.3 L616.9,22.0 L661.5,51.7 L706.0,74.2 L706.0,174 Z" fill="#2f81f7" fill-opacity="0.12"/><polyline points="38.0,157.5 82.5,165.4 127.1,166.1 171.6,164.1 216.1,146.9 260.7,161.4 305.2,150.2 349.7,145.6 394.3,150.2 438.8,137.7 483.3,133.7 527.9,111.2 572.4,66.3 616.9,22.0 661.5,51.7 706.0,74.2" fill="none" stroke="#2f81f7" stroke-width="2" stroke-linejoin="round" stroke-linecap="round"/><circle cx="616.9" cy="22.0" r="3.5" fill="#2f81f7"/><text x="616.9" y="13.0" text-anchor="middle" fill="#e6edf3" font-weight="600">230</text><circle cx="706.0" cy="74.2" r="3.5" fill="#2f81f7"/><text x="706.0" y="65.2" text-anchor="middle" fill="#e6edf3" font-weight="600">151</text><text x="38.0" y="192" text-anchor="middle" fill="#8b949e">Jun 01</text><text x="216.1" y="192" text-anchor="middle" fill="#8b949e">Jun 29</text><text x="394.3" y="192" text-anchor="middle" fill="#8b949e">Jul 27</text><text x="572.4" y="192" text-anchor="middle" fill="#8b949e">Aug 24</text><text x="706.0" y="192" text-anchor="middle" fill="#8b949e">Sep 14</text></g></svg>